<svg width="50" height="30" viewBox="0 0 50 30" fill="none" xmlns="http://www.w3.org/2000/svg">
<path d="M25 -0.0390625C18.3334 -0.0390625 14.1666 3.29434 12.5 9.96094C15 6.62754 17.9166 5.37754 21.25 6.21094C23.1518 6.68633 24.5111 8.06621 26.0158 9.59336C28.467 12.0814 31.3037 14.9609 37.5 14.9609C44.1666 14.9609 48.3334 11.6275 50 4.96094C47.5 8.29434 44.5834 9.54434 41.25 8.71094C39.3482 8.23555 37.9889 6.85566 36.4842 5.32852C34.033 2.84043 31.1963 -0.0390625 25 -0.0390625ZM12.5 14.9609C5.8334 14.9609 1.6666 18.2943 0 24.9609C2.5 21.6275 5.4166 20.3775 8.75 21.2109C10.6518 21.6863 12.0111 23.0662 13.5158 24.5934C15.967 27.0814 18.8037 29.9609 25 29.9609C31.6666 29.9609 35.8334 26.6275 37.5 19.9609C35 23.2943 32.0834 24.5443 28.75 23.7109C26.8482 23.2355 25.4889 21.8557 23.9842 20.3285C21.533 17.8404 18.6963 14.9609 12.5 14.9609Z" fill="url(#paint0_linear_15_1346)"/>
<defs>
<linearGradient id="paint0_linear_15_1346" x1="-138.9" y1="959.961" x2="4179.42" y2="3449.83" gradientUnits="userSpaceOnUse">
<stop stop-color="#2298BD"/>
<stop offset="1" stop-color="#0ED7B5"/>
</linearGradient>
</defs>
</svg>
